<?xml version="1.0" encoding="UTF-8" standalone="no"?>
<svg width="17px" height="17px" viewBox="0 0 17 17" version="1.1" xmlns="http://www.w3.org/2000/svg" xmlns:xlink="http://www.w3.org/1999/xlink">
    <!-- Generator: Sketch 3.8.3 (29802) - http://www.bohemiancoding.com/sketch -->
    <title>squares</title>
    <desc>Created with Sketch.</desc>
    <defs></defs>
    <g id="Page-1" stroke="none" stroke-width="1" fill="none" fill-rule="evenodd">
        <g id="Estadisticas" transform="translate(-19.000000, -74.000000)" fill="#FFFFFF">
            <g id="squares" transform="translate(19.000000, 74.000000)">
                <path d="M15.4057691,0 L0.704231536,0 C0.315495728,0 0,0.315495728 0,0.704231536 L0,15.4057691 C0,15.7945049 0.315495728,16.1100006 0.704231536,16.1100006 L15.4057691,16.1100006 C15.7945049,16.1100006 16.1100006,15.7945049 16.1100006,15.4057691 L16.1100006,0.704231536 C16.1100006,0.315495728 15.7945049,0 15.4057691,0 L15.4057691,0 Z M7.35029928,14.7015375 L1.40846307,14.7015375 L1.40846307,8.75970133 L7.35029928,8.75970133 L7.35029928,14.7015375 L7.35029928,14.7015375 Z M7.35029928,7.35123826 L1.40846307,7.35123826 L1.40846307,1.40846307 L7.35029928,1.40846307 L7.35029928,7.35123826 L7.35029928,7.35123826 Z M14.7015375,14.7015375 L8.75876235,14.7015375 L8.75876235,8.75970133 L14.7015375,8.75970133 L14.7015375,14.7015375 L14.7015375,14.7015375 Z M14.7015375,7.35123826 L8.75876235,7.35123826 L8.75876235,1.40846307 L14.7015375,1.40846307 L14.7015375,7.35123826 L14.7015375,7.35123826 Z" id="Shape"></path>
            </g>
        </g>
    </g>
</svg>